# xmcd
#
# Track frame offsets:
#	150
#	8377
#	19540
#	30082
#	41035
#	53525
#	64527
#	77925
#	86145
#	97100
#
# Disc length: 1416 seconds
#
# Revision: 0
# Processed by: cddbd v1.4PL0 Copyright (c) Steve Scherf et al.
# Submitted via: OrangeCD 4.1
#
DISCID=6605860a
DTITLE=Tennesse Ernie Ford - Red White and Blue
DYEAR=1900
DGENRE=
TTITLE0=The Star Spangled Banner
TTITLE1=Battle Hymn of the Republic
TTITLE2=Dixie
TTITLE3=This Land Is Your Land
TTITLE4=The Pledge of Allegiance
TTITLE5=This is my Country
TTITLE6=America the Beautiful
TTITLE7=God Bless our Native Land
TTITLE8=America
TTITLE9=God Bless America
EXTD=
EXTT0=
EXTT1=
EXTT2=
EXTT3=
EXTT4=
EXTT5=
EXTT6=
EXTT7=
EXTT8=
EXTT9=
PLAYORDER=
